<?xml version="1.0" encoding="UTF-8" standalone="no"?>
<!-- Created with Inkscape (http://www.inkscape.org/) -->
<svg xmlns:dc="http://purl.org/dc/elements/1.1/" xmlns:cc="http://creativecommons.org/ns#" xmlns:rdf="http://www.w3.org/1999/02/22-rdf-syntax-ns#" xmlns:svg="http://www.w3.org/2000/svg" xmlns="http://www.w3.org/2000/svg" xmlns:xlink="http://www.w3.org/1999/xlink" xmlns:sodipodi="http://sodipodi.sourceforge.net/DTD/sodipodi-0.dtd" xmlns:inkscape="http://www.inkscape.org/namespaces/inkscape" width="1403.8507" height="881.21405" id="svg2383" sodipodi:version="0.32" inkscape:version="0.46" version="1.0" sodipodi:docname="Ain-Diab.svg" inkscape:output_extension="org.inkscape.output.svg.inkscape" inkscape:export-filename="D:\Images\Race Tracks\Ain-Diab.png" inkscape:export-xdpi="90.015755" inkscape:export-ydpi="90.015755">
  <defs id="defs2385">
    <pattern patternUnits="userSpaceOnUse" width="18.181098" height="18.137641" patternTransform="matrix(0.1737876,0,0,0.1737876,763.47719,1693.9071)" id="pattern4912">
      <g id="g4907" transform="translate(-1025.5348,-1215.2814)">
        <rect style="opacity:1;fill:#000000;fill-opacity:1;stroke:none;stroke-width:0.5;stroke-linecap:round;stroke-linejoin:round;stroke-miterlimit:4;stroke-dasharray:none;stroke-dashoffset:0;stroke-opacity:1" id="rect4899" width="18.172573" height="18.095789" x="1025.5348" y="1215.2814"/>
        <rect style="opacity:1;fill:#ffffff;fill-opacity:1;stroke:none;stroke-width:0.5;stroke-linecap:round;stroke-linejoin:round;stroke-miterlimit:4;stroke-dasharray:none;stroke-dashoffset:0;stroke-opacity:1" id="rect4903" width="9.0746527" height="9.0746527" x="1025.5348" y="1215.2814"/>
        <rect style="opacity:1;fill:#ffffff;fill-opacity:1;stroke:none;stroke-width:0.5;stroke-linecap:round;stroke-linejoin:round;stroke-miterlimit:4;stroke-dasharray:none;stroke-dashoffset:0;stroke-opacity:1" id="rect4905" width="9.0746527" height="9.0746527" x="1034.6412" y="1224.3444"/>
      </g>
    </pattern>
    <pattern inkscape:collect="always" xlink:href="#pattern4912" id="pattern4166" patternTransform="matrix(0.4562459,3.0071167e-8,-3.0071167e-8,0.4562459,521.04871,-1945.0134)"/>
    <inkscape:perspective sodipodi:type="inkscape:persp3d" inkscape:vp_x="0 : 526.18109 : 1" inkscape:vp_y="0 : 1000 : 0" inkscape:vp_z="744.09448 : 526.18109 : 1" inkscape:persp3d-origin="372.04724 : 350.78739 : 1" id="perspective2391"/>
    <inkscape:perspective id="perspective2400" inkscape:persp3d-origin="372.04724 : 350.78739 : 1" inkscape:vp_z="744.09448 : 526.18109 : 1" inkscape:vp_y="0 : 1000 : 0" inkscape:vp_x="0 : 526.18109 : 1" sodipodi:type="inkscape:persp3d"/>
  </defs>
  <sodipodi:namedview id="base" pagecolor="#ffffff" bordercolor="#ffffff" borderopacity="0.0" inkscape:pageopacity="0.0" inkscape:pageshadow="0" inkscape:zoom="0.89895603" inkscape:cx="701.92532" inkscape:cy="440.60703" inkscape:document-units="px" inkscape:current-layer="layer1" showgrid="false" inkscape:window-width="1677" inkscape:window-height="1031" inkscape:window-x="1276" inkscape:window-y="-4"/>
  <metadata id="metadata2388">
    <rdf:RDF>
      <cc:Work rdf:about="">
        <dc:format>image/svg+xml</dc:format>
        <dc:type rdf:resource="http://purl.org/dc/dcmitype/StillImage"/>
        <dc:title>Track map of the historical circuit Ain-Diab</dc:title>
        <dc:date>7-29-2008</dc:date>
        <dc:creator>
          <cc:Agent>
            <dc:title>Will Pittenger</dc:title>
          </cc:Agent>
        </dc:creator>
        <dc:publisher>
          <cc:Agent>
            <dc:title>Will Pittenger</dc:title>
          </cc:Agent>
        </dc:publisher>
        <dc:subject>
          <rdf:Bag>
            <rdf:li>Ain-Diab</rdf:li>
            <rdf:li>Road course</rdf:li>
            <rdf:li>racing</rdf:li>
            <rdf:li>Formula 1</rdf:li>
            <rdf:li>Coast Road</rdf:li>
            <rdf:li>Ain Diab Corner</rdf:li>
            <rdf:li>Boulevard Panoramique</rdf:li>
            <rdf:li>Boulevard Alexandre Corner</rdf:li>
            <rdf:li>Assenmour Casablanca Road</rdf:li>
            <rdf:li>Azenmour Road Curve</rdf:li>
            <rdf:li>Sidi Abderharman Curver</rdf:li>
          </rdf:Bag>
        </dc:subject>
        <dc:description>Created in Inkscape with data from Google Earth.  Note: Google Earth shoswed me roads that were 50 years newer than last race at the track.  Also, nothing remains of the paddocks remain other than empty ground.  I made a guess as to the location of Pit Road based on the existing image and that empty ground.</dc:description>
        <cc:license rdf:resource="http://creativecommons.org/licenses/by-sa/3.0/"/>
      </cc:Work>
      <cc:License rdf:about="http://creativecommons.org/licenses/by-sa/3.0/">
        <cc:permits rdf:resource="http://creativecommons.org/ns#Reproduction"/>
        <cc:permits rdf:resource="http://creativecommons.org/ns#Distribution"/>
        <cc:requires rdf:resource="http://creativecommons.org/ns#Notice"/>
        <cc:requires rdf:resource="http://creativecommons.org/ns#Attribution"/>
        <cc:permits rdf:resource="http://creativecommons.org/ns#DerivativeWorks"/>
        <cc:requires rdf:resource="http://creativecommons.org/ns#ShareAlike"/>
      </cc:License>
    </rdf:RDF>
  </metadata>
  <g inkscape:label="Layer 1" inkscape:groupmode="layer" id="layer1" transform="translate(-1072.3334,-715.32678)">
    <use x="0" y="0" xlink:href="#text3198" id="use3274" style="stroke:#ffffff;stroke-width:2;stroke-miterlimit:4;stroke-dasharray:none;stroke-opacity:1" width="744.09448" height="1052.3622"/>
    <use x="0" y="0" xlink:href="#text3202" id="use3276" style="stroke:#ffffff;stroke-width:2;stroke-miterlimit:4;stroke-dasharray:none;stroke-opacity:1" width="744.09448" height="1052.3622"/>
    <use x="0" y="0" xlink:href="#text3206" id="use3278" style="stroke:#ffffff;stroke-width:2;stroke-miterlimit:4;stroke-dasharray:none;stroke-opacity:1" width="744.09448" height="1052.3622"/>
    <use x="0" y="0" xlink:href="#text3212" id="use3280" style="stroke:#ffffff;stroke-width:2;stroke-miterlimit:4;stroke-dasharray:none;stroke-opacity:1" width="744.09448" height="1052.3622"/>
    <path style="fill:none;fill-rule:evenodd;stroke:#ffffff;stroke-width:4;stroke-linecap:butt;stroke-linejoin:round;stroke-miterlimit:4;stroke-dasharray:none;stroke-opacity:1" d="M 1629.6519,1470.0354 C 1610.4893,1472.1435 1592.7017,1462.755 1574.4145,1465.1076 C 1490.7453,1475.8716 1408.1906,1480.174 1326.7673,1485.4458 C 1309.9654,1486.5337 1292.9341,1501.1868 1277.1085,1501.6241" id="path3178" sodipodi:nodetypes="csss"/>
    <path sodipodi:nodetypes="cssssssssssssssssssssssssssssssssssss" id="path3180" d="M 1440.4218,1493.8204 C 1371.1482,1499.9681 1301.5926,1504.4489 1232.2545,1508.1767 C 1227.4181,1508.4367 1221.4343,1508.3379 1217.8982,1505.784 C 1214.2562,1503.1536 1212.2419,1497.3767 1210.72,1492.624 C 1189.511,1426.3924 1161.9543,1360.6708 1149.7055,1292.8313 C 1141.2173,1245.8199 1151.1706,1195.9783 1148.5091,1148.0713 C 1147.9803,1138.5529 1144.84,1128.8332 1140.1345,1120.5549 C 1123.3055,1090.9484 1099.9008,1064.2118 1083.9055,1034.4167 C 1079.5626,1026.327 1076.931,1015.789 1079.12,1006.9004 C 1090.091,962.35143 1111.8575,919.18647 1123.3855,874.104 C 1134.1897,831.85191 1134.8174,786.10482 1146.1164,744.89673 C 1148.3762,736.65512 1156.4382,728.77257 1164.0618,725.75491 C 1175.58,721.1956 1190.4764,720.46732 1203.5418,722.16582 C 1310.1128,736.02005 1416.0532,760.16477 1522.9709,772.41309 C 1583.1454,779.30659 1644.2555,780.42662 1704.8182,779.59127 C 1759.904,778.83147 1815.4115,763.26026 1869.9164,767.62764 C 1939.8333,773.22995 2010.2816,790.82609 2078.0836,809.50036 C 2104.3956,816.7473 2127.2863,833.97555 2152.2582,845.39127 C 2169.1591,853.11737 2185.6889,862.79549 2203.7018,866.92582 C 2248.2986,877.15185 2295.6113,878.08264 2340.0873,888.46036 C 2355.4295,892.04022 2371.1229,898.7706 2383.1564,908.79855 C 2411.7993,932.66757 2439.1615,961.13887 2462.1164,990.15127 C 2467.8742,997.42855 2472.1006,1009.0684 2469.2945,1017.6676 C 2459.7382,1046.9532 2437.4618,1074.1418 2425.0291,1103.8058 C 2414.7309,1128.3769 2404.8233,1154.1535 2401.1018,1180.3731 C 2396.0499,1215.9656 2391.7664,1254.2058 2398.7091,1289.2422 C 2408.9143,1340.7428 2438.1891,1389.7367 2452.5455,1439.984 C 2454.1406,1445.567 2450.5611,1452.4252 2446.5636,1456.7331 C 2409.4859,1496.6906 2371.311,1538.8767 2329.32,1572.7804 C 2317.4746,1582.3445 2300.3853,1585.8988 2285.0545,1587.1367 C 2236.1804,1591.083 2185.4985,1591.7517 2136.7055,1588.3331 C 2122.8888,1587.365 2109.6278,1580.2733 2097.2255,1573.9767 C 2083.7066,1567.1133 2071.5452,1557.4603 2058.9418,1548.8531 C 2038.8446,1535.1282 2021.5419,1515.6028 1999.1236,1506.9804 C 1948.9625,1487.6876 1894.2327,1476.9577 1841.2036,1465.1076 C 1822.8497,1461.0062 1803.7269,1457.7823 1784.9745,1459.1258 C 1670.133,1467.3533 1555.3882,1483.6178 1440.4218,1493.8204 z" style="fill:none;fill-opacity:1;fill-rule:evenodd;stroke:#ffffff;stroke-width:12;stroke-linecap:butt;stroke-linejoin:round;stroke-miterlimit:4;stroke-dasharray:none;stroke-opacity:1"/>
    <path style="fill:none;fill-opacity:1;fill-rule:evenodd;stroke:#000000;stroke-width:10;stroke-linecap:butt;stroke-linejoin:round;stroke-miterlimit:4;stroke-dasharray:none;stroke-opacity:1" d="M 1440.4218,1493.8204 C 1371.1482,1499.9681 1301.5926,1504.4489 1232.2545,1508.1767 C 1227.4181,1508.4367 1221.4343,1508.3379 1217.8982,1505.784 C 1214.2562,1503.1536 1212.2419,1497.3767 1210.72,1492.624 C 1189.511,1426.3924 1161.9543,1360.6708 1149.7055,1292.8313 C 1141.2173,1245.8199 1151.1706,1195.9783 1148.5091,1148.0713 C 1147.9803,1138.5529 1144.84,1128.8332 1140.1345,1120.5549 C 1123.3055,1090.9484 1099.9008,1064.2118 1083.9055,1034.4167 C 1079.5626,1026.327 1076.931,1015.789 1079.12,1006.9004 C 1090.091,962.35143 1111.8575,919.18647 1123.3855,874.104 C 1134.1897,831.85191 1134.8174,786.10482 1146.1164,744.89673 C 1148.3762,736.65512 1156.4382,728.77257 1164.0618,725.75491 C 1175.58,721.1956 1190.4764,720.46732 1203.5418,722.16582 C 1310.1128,736.02005 1416.0532,760.16477 1522.9709,772.41309 C 1583.1454,779.30659 1644.2555,780.42662 1704.8182,779.59127 C 1759.904,778.83147 1815.4115,763.26026 1869.9164,767.62764 C 1939.8333,773.22995 2010.2816,790.82609 2078.0836,809.50036 C 2104.3956,816.7473 2127.2863,833.97555 2152.2582,845.39127 C 2169.1591,853.11737 2185.6889,862.79549 2203.7018,866.92582 C 2248.2986,877.15185 2295.6113,878.08264 2340.0873,888.46036 C 2355.4295,892.04022 2371.1229,898.7706 2383.1564,908.79855 C 2411.7993,932.66757 2439.1615,961.13887 2462.1164,990.15127 C 2467.8742,997.42855 2472.1006,1009.0684 2469.2945,1017.6676 C 2459.7382,1046.9532 2437.4618,1074.1418 2425.0291,1103.8058 C 2414.7309,1128.3769 2404.8233,1154.1535 2401.1018,1180.3731 C 2396.0499,1215.9656 2391.7664,1254.2058 2398.7091,1289.2422 C 2408.9143,1340.7428 2438.1891,1389.7367 2452.5455,1439.984 C 2454.1406,1445.567 2450.5611,1452.4252 2446.5636,1456.7331 C 2409.4859,1496.6906 2371.311,1538.8767 2329.32,1572.7804 C 2317.4746,1582.3445 2300.3853,1585.8988 2285.0545,1587.1367 C 2236.1804,1591.083 2185.4985,1591.7517 2136.7055,1588.3331 C 2122.8888,1587.365 2109.6278,1580.2733 2097.2255,1573.9767 C 2083.7066,1567.1133 2071.5452,1557.4603 2058.9418,1548.8531 C 2038.8446,1535.1282 2021.5419,1515.6028 1999.1236,1506.9804 C 1948.9625,1487.6876 1894.2327,1476.9577 1841.2036,1465.1076 C 1822.8497,1461.0062 1803.7269,1457.7823 1784.9745,1459.1258 C 1670.133,1467.3533 1555.3882,1483.6178 1440.4218,1493.8204 z" id="path2406" sodipodi:nodetypes="cssssssssssssssssssssssssssssssssssss"/>
    <text xml:space="preserve" style="font-size:28.00000191px;font-style:normal;font-weight:normal;writing-mode:lr-tb;fill:#000000;fill-opacity:1;font-family:Times New Roman" x="1359.7513" y="1687.3156" id="text3198" transform="matrix(0.9928936,-0.1190052,0.1190052,0.9928936,0,0)"><tspan sodipodi:role="line" id="tspan3200" x="1359.7513" y="1687.3156">Coast Road</tspan></text>
    <text xml:space="preserve" style="font-size:28.00000191px;font-style:normal;font-weight:normal;writing-mode:lr-tb;fill:#000000;fill-opacity:1;font-family:Times New Roman" x="2148.2373" y="1598.8414" id="text3202" transform="matrix(0.9999394,-1.1005384e-2,1.1005384e-2,0.9999394,0,0)"><tspan sodipodi:role="line" id="tspan3204" x="2148.2373" y="1598.8414">Coast Road</tspan></text>
    <text xml:space="preserve" style="font-size:28px;font-style:normal;font-weight:normal;writing-mode:lr-tb;fill:#000000;fill-opacity:1;font-family:Times New Roman" x="1164.0619" y="1118.1621" id="text3206"><tspan sodipodi:role="line" id="tspan3208" x="1164.0619" y="1118.1621">Boulevard</tspan><tspan sodipodi:role="line" x="1164.0619" y="1153.1621" id="tspan3210">Panoramique</tspan></text>
    <text xml:space="preserve" style="font-size:28px;font-style:normal;font-weight:normal;writing-mode:lr-tb;fill:#000000;fill-opacity:1;font-family:Times New Roman" x="1580.3964" y="826.24945" id="text3212"><tspan sodipodi:role="line" id="tspan3214" x="1580.3964" y="826.24945">Azenmour Casablanca Road</tspan></text>
    <g id="g4228">
      <use height="1052.3622" width="744.09448" style="stroke:#ffffff;stroke-width:2;stroke-miterlimit:4;stroke-dasharray:none;stroke-opacity:1" id="use3282" xlink:href="#text3216" y="0" x="0"/>
      <g id="g3248">
        <path sodipodi:type="arc" style="opacity:1;fill:#ffffff;fill-opacity:1;fill-rule:nonzero;stroke:#181818;stroke-width:1.22580647;stroke-linecap:round;stroke-linejoin:round;stroke-miterlimit:4;stroke-dasharray:none;stroke-dashoffset:66;stroke-opacity:1" id="path3246" sodipodi:cx="1247.8073" sodipodi:cy="1469.8931" sodipodi:rx="22.730909" sodipodi:ry="22.730909" d="M 1270.5382,1469.8931 A 22.730909,22.730909 0 1 1 1225.0763,1469.8931 A 22.730909,22.730909 0 1 1 1270.5382,1469.8931 z" transform="matrix(0.8157895,0,0,0.8157895,226.60151,277.59225)"/>
        <text xml:space="preserve" style="font-size:40px;font-style:normal;font-weight:normal;writing-mode:lr-tb;fill:#000000;fill-opacity:1;stroke:none;stroke-width:1px;stroke-linecap:butt;stroke-linejoin:miter;stroke-opacity:1;font-family:Times New Roman" x="1234.6472" y="1490.2312" id="text3182"><tspan sodipodi:role="line" id="tspan3184" x="1234.6472" y="1490.2312">1</tspan></text>
      </g>
      <text id="text3216" y="1414.8604" x="1241.8254" style="font-size:28px;font-style:normal;font-weight:normal;writing-mode:lr-tb;fill:#000000;fill-opacity:1;font-family:Times New Roman" xml:space="preserve"><tspan id="tspan3220" y="1414.8604" x="1241.8254" sodipodi:role="line">Ain Diab</tspan><tspan id="tspan3224" y="1449.8604" x="1241.8254" sodipodi:role="line">Corner</tspan></text>
    </g>
    <g id="g4207">
      <use style="stroke:#ffffff;stroke-width:2;stroke-miterlimit:4;stroke-dasharray:none;stroke-opacity:1" id="use3286" xlink:href="#text3232" y="0" x="0" width="744.09448" height="1052.3622"/>
      <g transform="translate(-5.9818182,10.767273)" id="g3262">
        <path sodipodi:type="arc" style="opacity:1;fill:#ffffff;fill-opacity:1;fill-rule:nonzero;stroke:#181818;stroke-width:1.22580647;stroke-linecap:round;stroke-linejoin:round;stroke-miterlimit:4;stroke-dasharray:none;stroke-dashoffset:66;stroke-opacity:1" id="path3260" sodipodi:cx="1247.8073" sodipodi:cy="1469.8931" sodipodi:rx="22.730909" sodipodi:ry="22.730909" d="M 1270.5382,1469.8931 A 22.730909,22.730909 0 1 1 1225.0763,1469.8931 A 22.730909,22.730909 0 1 1 1270.5382,1469.8931 z" transform="matrix(0.8157895,0,0,0.8157895,1444.944,-276.0897)"/>
        <text xml:space="preserve" style="font-size:40px;font-style:normal;font-weight:normal;writing-mode:lr-tb;fill:#000000;fill-opacity:1;stroke:none;stroke-width:1px;stroke-linecap:butt;stroke-linejoin:miter;stroke-opacity:1;font-family:Times New Roman" x="2453.7417" y="936.31488" id="text3190"><tspan sodipodi:role="line" id="tspan3192" x="2453.7417" y="936.31488">3</tspan></text>
      </g>
      <text id="text3232" y="969.81311" x="2287.4475" style="font-size:28px;font-style:normal;font-weight:normal;writing-mode:lr-tb;fill:#000000;fill-opacity:1;font-family:Times New Roman" xml:space="preserve"><tspan y="969.81311" x="2287.4475" id="tspan3234" sodipodi:role="line">Azenmour</tspan><tspan id="tspan3236" y="1004.8131" x="2287.4475" sodipodi:role="line">Road Curve</tspan></text>
    </g>
    <g id="g4196">
      <use style="stroke:#ffffff;stroke-width:2;stroke-miterlimit:4;stroke-dasharray:none;stroke-opacity:1" id="use3288" xlink:href="#text3238" y="0" x="0" width="744.09448" height="1052.3622"/>
      <g id="g3255">
        <path sodipodi:type="arc" style="opacity:1;fill:#ffffff;fill-opacity:1;fill-rule:nonzero;stroke:#181818;stroke-width:1.22580647;stroke-linecap:round;stroke-linejoin:round;stroke-miterlimit:4;stroke-dasharray:none;stroke-dashoffset:66;stroke-opacity:1" id="path3253" sodipodi:cx="1247.8073" sodipodi:cy="1469.8931" sodipodi:rx="22.730909" sodipodi:ry="22.730909" d="M 1270.5382,1469.8931 A 22.730909,22.730909 0 1 1 1225.0763,1469.8931 A 22.730909,22.730909 0 1 1 1270.5382,1469.8931 z" transform="matrix(0.8157895,0,0,0.8157895,166.48054,-440.22587)"/>
        <text xml:space="preserve" style="font-size:40px;font-style:normal;font-weight:normal;writing-mode:lr-tb;fill:#000000;fill-opacity:1;stroke:none;stroke-width:1px;stroke-linecap:butt;stroke-linejoin:miter;stroke-opacity:1;font-family:Times New Roman" x="1174.829" y="772.41309" id="text3186"><tspan sodipodi:role="line" id="tspan3188" x="1174.829" y="772.41309">2</tspan></text>
      </g>
      <text id="text3238" y="819.07123" x="1178.4182" style="font-size:28px;font-style:normal;font-weight:normal;writing-mode:lr-tb;fill:#000000;fill-opacity:1;font-family:Times New Roman" xml:space="preserve"><tspan y="819.07123" x="1178.4182" id="tspan3240" sodipodi:role="line">Boulevard</tspan><tspan id="tspan3242" y="854.07123" x="1178.4182" sodipodi:role="line">Alexandre</tspan><tspan id="tspan3244" y="889.07123" x="1178.4182" sodipodi:role="line">Corner</tspan></text>
    </g>
    <g id="g5556" transform="translate(241.98889,274.46802)">
      <text id="text3180" y="825.19757" x="1531.2192" style="font-size:64px;font-style:normal;font-weight:normal;fill:#000000;fill-opacity:1;stroke:#ffffff;stroke-width:1px;stroke-linecap:butt;stroke-linejoin:miter;stroke-opacity:1;font-family:Times New Roman" xml:space="preserve"><tspan y="825.19757" x="1531.2192" id="tspan3182" sodipodi:role="line">N</tspan></text>
      <path id="path2745" d="M 1596.7514,831.22306 L 1627.2861,785.76005 L 1626.3334,785.36534 L 1612.9318,792.16029 L 1608.2598,777.87913 L 1607.3073,777.48457 L 1596.7514,831.22306 z" style="fill:#ff0000;fill-opacity:1;fill-rule:nonzero;stroke:#ffffff;stroke-width:1;stroke-linecap:round;stroke-linejoin:round;stroke-miterlimit:4;stroke-dasharray:none;stroke-dashoffset:0;stroke-opacity:1"/>
    </g>
    <path style="fill:none;fill-rule:evenodd;stroke:#000000;stroke-width:2;stroke-linecap:butt;stroke-linejoin:round;stroke-miterlimit:4;stroke-dasharray:none;stroke-opacity:1" d="M 1629.6519,1470.0354 C 1610.4893,1472.1435 1592.7017,1462.755 1574.4145,1465.1076 C 1490.7453,1475.8716 1408.1906,1480.174 1326.7673,1485.4458 C 1309.9654,1486.5337 1292.9341,1501.1868 1277.1085,1501.6241" id="path4194" sodipodi:nodetypes="csss"/>
    <g transform="matrix(0.8039696,0.5946704,-0.5946704,0.8039696,523.96955,-406.06249)" id="g4176">
      <path transform="matrix(0.3524089,0.3741722,1.134085,-1.0681218,-262.40194,1848.8059)" d="M 1695.937,1398.5206 L 1671.4558,1398.5206 L 1683.6964,1377.3193 L 1695.937,1398.5206 z" inkscape:randomized="0" inkscape:rounded="0" inkscape:flatsided="true" sodipodi:arg2="1.5707963" sodipodi:arg1="0.52359878" sodipodi:r2="7.0671172" sodipodi:r1="14.134234" sodipodi:cy="1391.4535" sodipodi:cx="1683.6964" sodipodi:sides="3" id="path3463" style="opacity:1;fill:#ff0000;fill-opacity:1;stroke:#ffffff;stroke-width:0.83812821;stroke-linecap:round;stroke-linejoin:miter;stroke-miterlimit:4;stroke-dasharray:none;stroke-dashoffset:0;stroke-opacity:1;display:inline" sodipodi:type="star"/>
      <rect ry="0" transform="matrix(0.7304711,-0.6829436,-0.6829436,-0.7304711,0,0)" y="-2023.6393" x="678.39148" height="53.588936" width="13.041033" id="rect3457" style="opacity:1;fill:url(#pattern4166);fill-opacity:1;stroke:#000000;stroke-width:0.74999946;stroke-linecap:round;stroke-linejoin:round;stroke-miterlimit:4;stroke-dasharray:none;stroke-dashoffset:0;stroke-opacity:1;display:inline"/>
    </g>
    <g id="g4217">
      <use height="1052.3622" width="744.09448" style="stroke:#ffffff;stroke-width:2;stroke-miterlimit:4;stroke-dasharray:none;stroke-opacity:1" id="use3284" xlink:href="#text3226" y="0" x="0"/>
      <g id="g3269">
        <path sodipodi:type="arc" style="opacity:1;fill:#ffffff;fill-opacity:1;fill-rule:nonzero;stroke:#181818;stroke-width:1.22580647;stroke-linecap:round;stroke-linejoin:round;stroke-miterlimit:4;stroke-dasharray:none;stroke-dashoffset:66;stroke-opacity:1" id="path3267" sodipodi:cx="1247.8073" sodipodi:cy="1469.8931" sodipodi:rx="22.730909" sodipodi:ry="22.730909" d="M 1270.5382,1469.8931 A 22.730909,22.730909 0 1 1 1225.0763,1469.8931 A 22.730909,22.730909 0 1 1 1270.5382,1469.8931 z" transform="matrix(0.8157895,0,0,0.8157895,1401.1474,333.82137)"/>
        <text xml:space="preserve" style="font-size:40px;font-style:normal;font-weight:normal;writing-mode:lr-tb;fill:#000000;fill-opacity:1;stroke:none;stroke-width:1px;stroke-linecap:butt;stroke-linejoin:miter;stroke-opacity:1;font-family:Times New Roman" x="2409.4763" y="1546.4603" id="text3194"><tspan sodipodi:role="line" id="tspan3196" x="2409.4763" y="1546.4603">4</tspan></text>
      </g>
      <text id="text3226" y="1454.3402" x="2221.6472" style="font-size:28px;font-style:normal;font-weight:normal;writing-mode:lr-tb;fill:#000000;fill-opacity:1;font-family:Times New Roman" xml:space="preserve"><tspan y="1454.3402" x="2221.6472" id="tspan3228" sodipodi:role="line">Sidi Abderharman</tspan><tspan id="tspan3230" y="1489.3402" x="2221.6472" sodipodi:role="line">Curve</tspan></text>
      <path transform="matrix(0.3355664,-0.3893482,-1.1800821,-1.017074,3438.8783,3557.397)" d="M 1695.937,1398.5206 L 1671.4558,1398.5206 L 1683.6964,1377.3193 L 1695.937,1398.5206 z" inkscape:randomized="0" inkscape:rounded="0" inkscape:flatsided="true" sodipodi:arg2="1.5707963" sodipodi:arg1="0.52359878" sodipodi:r2="7.0671172" sodipodi:r1="14.134234" sodipodi:cy="1391.4535" sodipodi:cx="1683.6964" sodipodi:sides="3" id="path5742" style="opacity:1;fill:#000000;fill-opacity:1;stroke:#ffffff;stroke-width:0.83812821;stroke-linecap:round;stroke-linejoin:miter;stroke-miterlimit:4;stroke-dasharray:none;stroke-dashoffset:0;stroke-opacity:1;display:inline" sodipodi:type="star"/>
    </g>
  </g>
</svg>