<?xml version="1.0" encoding="UTF-8" standalone="no"?>
<!-- Created with Inkscape (http://www.inkscape.org/) -->
<svg xmlns:dc="http://purl.org/dc/elements/1.1/" xmlns:cc="http://creativecommons.org/ns#" xmlns:rdf="http://www.w3.org/1999/02/22-rdf-syntax-ns#" xmlns:svg="http://www.w3.org/2000/svg" xmlns="http://www.w3.org/2000/svg" xmlns:xlink="http://www.w3.org/1999/xlink" xmlns:sodipodi="http://sodipodi.sourceforge.net/DTD/sodipodi-0.dtd" xmlns:inkscape="http://www.inkscape.org/namespaces/inkscape" width="610.87518" height="564.7149" id="svg2236" sodipodi:version="0.32" inkscape:version="0.46" sodipodi:docbase="C:\Documents and Settings\Lada\My Documents\My Pictures\Moottoriradat\Valmiit SVG" sodipodi:docname="Circuit_AVUS.svg" inkscape:output_extension="org.inkscape.output.svg.inkscape" version="1.0" inkscape:export-filename="D:\Images\Race Tracks\Circuit_AVUS.png" inkscape:export-xdpi="200" inkscape:export-ydpi="200">
  <defs id="defs2238">
    <pattern patternUnits="userSpaceOnUse" width="18.181098" height="18.137641" patternTransform="matrix(0.1737876,0,0,0.1737876,763.47719,1693.9071)" id="pattern4912">
      <g id="g4907" transform="translate(-1025.5348,-1215.2814)">
        <rect style="opacity:1;fill:#000000;fill-opacity:1;stroke:none;stroke-width:0.5;stroke-linecap:round;stroke-linejoin:round;stroke-miterlimit:4;stroke-dasharray:none;stroke-dashoffset:0;stroke-opacity:1" id="rect4899" width="18.172573" height="18.095789" x="1025.5348" y="1215.2814"/>
        <rect style="opacity:1;fill:#ffffff;fill-opacity:1;stroke:none;stroke-width:0.5;stroke-linecap:round;stroke-linejoin:round;stroke-miterlimit:4;stroke-dasharray:none;stroke-dashoffset:0;stroke-opacity:1" id="rect4903" width="9.0746527" height="9.0746527" x="1025.5348" y="1215.2814"/>
        <rect style="opacity:1;fill:#ffffff;fill-opacity:1;stroke:none;stroke-width:0.5;stroke-linecap:round;stroke-linejoin:round;stroke-miterlimit:4;stroke-dasharray:none;stroke-dashoffset:0;stroke-opacity:1" id="rect4905" width="9.0746527" height="9.0746527" x="1034.6412" y="1224.3444"/>
      </g>
    </pattern>
    <pattern inkscape:collect="always" xlink:href="#pattern4912" id="pattern4166" patternTransform="matrix(0.4562459,-2.6672962e-8,2.6672962e-8,0.4562459,-421.48988,512.94968)"/>
    <inkscape:perspective sodipodi:type="inkscape:persp3d" inkscape:vp_x="0 : 300 : 1" inkscape:vp_y="0 : 1000 : 0" inkscape:vp_z="800 : 300 : 1" inkscape:persp3d-origin="400 : 200 : 1" id="perspective59"/>
    <pattern patternUnits="userSpaceOnUse" width="36.150258" height="33.03394" patternTransform="translate(442.25073,44.85406)" id="pattern3203">
      <g id="g12355" transform="matrix(-6.6106815e-3,-1.1025021,1.1025021,-6.6106815e-3,-157.11704,600.08797)" style="display:inline">
        <rect id="rect9376" style="fill:#000000;fill-opacity:1;fill-rule:nonzero;stroke:none;stroke-width:1.29999995;stroke-miterlimit:4;stroke-dasharray:none;stroke-opacity:1" transform="matrix(0.7650015,0.6440285,-0.6440285,0.7650015,0,0)" y="-225.66817" x="503.13138" height="3.794178" width="3.6360872"/>
        <rect id="rect10347" style="fill:#000000;fill-opacity:1;fill-rule:nonzero;stroke:none;stroke-width:1.29999995;stroke-miterlimit:4;stroke-dasharray:none;stroke-opacity:1" transform="matrix(0.7650015,0.6440285,-0.6440285,0.7650015,0,0)" y="-210.80884" x="503.13843" height="3.794178" width="3.6360872"/>
        <rect id="rect10349" style="fill:#000000;fill-opacity:1;fill-rule:nonzero;stroke:none;stroke-width:1.29999995;stroke-miterlimit:4;stroke-dasharray:none;stroke-opacity:1" transform="matrix(0.7650015,0.6440285,-0.6440285,0.7650015,0,0)" y="-233.16934" x="503.22794" height="3.794178" width="3.6360872"/>
        <rect id="rect10351" style="fill:#ffffff;fill-opacity:1;fill-rule:nonzero;stroke:none;stroke-width:1.29999995;stroke-miterlimit:4;stroke-dasharray:none;stroke-opacity:1" transform="matrix(0.7650015,0.6440285,-0.6440285,0.7650015,0,0)" y="-221.97508" x="503.10162" height="3.794178" width="3.6360872"/>
        <rect id="rect12293" style="fill:#ffffff;fill-opacity:1;fill-rule:nonzero;stroke:none;stroke-width:1.29999995;stroke-miterlimit:4;stroke-dasharray:none;stroke-opacity:1" transform="matrix(0.7650015,0.6440285,-0.6440285,0.7650015,0,0)" y="-229.39552" x="503.14481" height="3.794178" width="3.6360872"/>
        <rect id="rect12295" style="fill:#ffffff;fill-opacity:1;fill-rule:nonzero;stroke:none;stroke-width:1.29999995;stroke-miterlimit:4;stroke-dasharray:none;stroke-opacity:1" transform="matrix(0.7650015,0.6440285,-0.6440285,0.7650015,0,0)" y="-214.46121" x="503.1427" height="3.794178" width="3.6360872"/>
        <rect id="rect12297" style="fill:#ffffff;fill-opacity:1;fill-rule:nonzero;stroke:none;stroke-width:1.29999995;stroke-miterlimit:4;stroke-dasharray:none;stroke-opacity:1" transform="matrix(0.7650015,0.6440285,-0.6440285,0.7650015,0,0)" y="-206.99403" x="503.14166" height="3.794178" width="3.6360872"/>
        <rect id="rect12299" style="fill:#ffffff;fill-opacity:1;fill-rule:nonzero;stroke:none;stroke-width:1.29999995;stroke-miterlimit:4;stroke-dasharray:none;stroke-opacity:1" transform="matrix(0.7650015,0.6440285,-0.6440285,0.7650015,0,0)" y="-233.22285" x="506.87115" height="3.794178" width="3.6360872"/>
        <rect id="rect12301" style="fill:#000000;fill-opacity:1;fill-rule:nonzero;stroke:none;stroke-width:1.29999995;stroke-miterlimit:4;stroke-dasharray:none;stroke-opacity:1" transform="matrix(0.7650015,0.6440285,-0.6440285,0.7650015,0,0)" y="-203.19873" x="503.1145" height="3.794178" width="3.6360872"/>
        <rect id="rect12303" style="fill:#000000;fill-opacity:1;fill-rule:nonzero;stroke:none;stroke-width:1.29999995;stroke-miterlimit:4;stroke-dasharray:none;stroke-opacity:1" transform="matrix(0.7650015,0.6440285,-0.6440285,0.7650015,0,0)" y="-218.21779" x="503.12387" height="3.794178" width="3.6360872"/>
        <rect id="rect12321" style="fill:#000000;fill-opacity:1;fill-rule:nonzero;stroke:none;stroke-width:1.29999995;stroke-miterlimit:4;stroke-dasharray:none;stroke-opacity:1" transform="matrix(0.7650015,0.6440285,-0.6440285,0.7650015,0,0)" y="-221.93484" x="506.6814" height="3.794178" width="3.6360872"/>
        <rect id="rect12323" style="fill:#000000;fill-opacity:1;fill-rule:nonzero;stroke:none;stroke-width:1.29999995;stroke-miterlimit:4;stroke-dasharray:none;stroke-opacity:1" transform="matrix(0.7650015,0.6440285,-0.6440285,0.7650015,0,0)" y="-207.07552" x="506.68845" height="3.794178" width="3.6360872"/>
        <rect id="rect12325" style="fill:#000000;fill-opacity:1;fill-rule:nonzero;stroke:none;stroke-width:1.29999995;stroke-miterlimit:4;stroke-dasharray:none;stroke-opacity:1" transform="matrix(0.7650015,0.6440285,-0.6440285,0.7650015,0,0)" y="-229.43602" x="506.77795" height="3.794178" width="3.6360872"/>
        <rect id="rect12327" style="fill:#ffffff;fill-opacity:1;fill-rule:nonzero;stroke:none;stroke-width:1.29999995;stroke-miterlimit:4;stroke-dasharray:none;stroke-opacity:1" transform="matrix(0.7650015,0.6440285,-0.6440285,0.7650015,0,0)" y="-218.24176" x="506.65164" height="3.794178" width="3.6360872"/>
        <rect id="rect12329" style="fill:#ffffff;fill-opacity:1;fill-rule:nonzero;stroke:none;stroke-width:1.29999995;stroke-miterlimit:4;stroke-dasharray:none;stroke-opacity:1" transform="matrix(0.7650015,0.6440285,-0.6440285,0.7650015,0,0)" y="-225.6622" x="506.69482" height="3.794178" width="3.6360872"/>
        <rect id="rect12331" style="fill:#ffffff;fill-opacity:1;fill-rule:nonzero;stroke:none;stroke-width:1.29999995;stroke-miterlimit:4;stroke-dasharray:none;stroke-opacity:1" transform="matrix(0.7650015,0.6440285,-0.6440285,0.7650015,0,0)" y="-210.72789" x="506.69272" height="3.794178" width="3.6360872"/>
        <rect id="rect12333" style="fill:#ffffff;fill-opacity:1;fill-rule:nonzero;stroke:none;stroke-width:1.29999995;stroke-miterlimit:4;stroke-dasharray:none;stroke-opacity:1" transform="matrix(0.7650015,0.6440285,-0.6440285,0.7650015,0,0)" y="-203.26071" x="506.69168" height="3.794178" width="3.6360872"/>
        <rect id="rect12335" style="fill:#000000;fill-opacity:1;fill-rule:nonzero;stroke:none;stroke-width:1.29999995;stroke-miterlimit:4;stroke-dasharray:none;stroke-opacity:1" transform="matrix(0.7650015,0.6440285,-0.6440285,0.7650015,0,0)" y="-214.48447" x="506.67389" height="3.794178" width="3.6360872"/>
        <rect id="rect12337" style="fill:#000000;fill-opacity:1;fill-rule:nonzero;stroke:none;stroke-width:1.29999995;stroke-miterlimit:4;stroke-dasharray:none;stroke-opacity:1" transform="matrix(0.7650015,0.6440285,-0.6440285,0.7650015,0,0)" y="-225.71014" x="510.23587" height="3.794178" width="3.6360872"/>
        <rect id="rect12339" style="fill:#000000;fill-opacity:1;fill-rule:nonzero;stroke:none;stroke-width:1.29999995;stroke-miterlimit:4;stroke-dasharray:none;stroke-opacity:1" transform="matrix(0.7650015,0.6440285,-0.6440285,0.7650015,0,0)" y="-210.85081" x="510.24292" height="3.794178" width="3.6360872"/>
        <rect id="rect12341" style="fill:#000000;fill-opacity:1;fill-rule:nonzero;stroke:none;stroke-width:1.29999995;stroke-miterlimit:4;stroke-dasharray:none;stroke-opacity:1" transform="matrix(0.7650015,0.6440285,-0.6440285,0.7650015,0,0)" y="-233.21132" x="510.33243" height="3.794178" width="3.6360872"/>
        <rect id="rect12343" style="fill:#ffffff;fill-opacity:1;fill-rule:nonzero;stroke:none;stroke-width:1.29999995;stroke-miterlimit:4;stroke-dasharray:none;stroke-opacity:1" transform="matrix(0.7650015,0.6440285,-0.6440285,0.7650015,0,0)" y="-222.01706" x="510.20612" height="3.794178" width="3.6360872"/>
        <rect id="rect12345" style="fill:#ffffff;fill-opacity:1;fill-rule:nonzero;stroke:none;stroke-width:1.29999995;stroke-miterlimit:4;stroke-dasharray:none;stroke-opacity:1" transform="matrix(0.7650015,0.6440285,-0.6440285,0.7650015,0,0)" y="-229.4375" x="510.2493" height="3.794178" width="3.6360872"/>
        <rect id="rect12347" style="fill:#ffffff;fill-opacity:1;fill-rule:nonzero;stroke:none;stroke-width:1.29999995;stroke-miterlimit:4;stroke-dasharray:none;stroke-opacity:1" transform="matrix(0.7650015,0.6440285,-0.6440285,0.7650015,0,0)" y="-214.50319" x="510.24719" height="3.794178" width="3.6360872"/>
        <rect id="rect12349" style="fill:#ffffff;fill-opacity:1;fill-rule:nonzero;stroke:none;stroke-width:1.29999995;stroke-miterlimit:4;stroke-dasharray:none;stroke-opacity:1" transform="matrix(0.7650015,0.6440285,-0.6440285,0.7650015,0,0)" y="-207.03601" x="510.24615" height="3.794178" width="3.6360872"/>
        <rect id="rect12351" style="fill:#000000;fill-opacity:1;fill-rule:nonzero;stroke:none;stroke-width:1.29999995;stroke-miterlimit:4;stroke-dasharray:none;stroke-opacity:1" transform="matrix(0.7650015,0.6440285,-0.6440285,0.7650015,0,0)" y="-218.25977" x="510.22836" height="3.794178" width="3.6360872"/>
        <rect id="rect12353" style="fill:#000000;fill-opacity:1;fill-rule:nonzero;stroke:none;stroke-width:1.29999995;stroke-miterlimit:4;stroke-dasharray:none;stroke-opacity:1" transform="matrix(0.7650015,0.6440285,-0.6440285,0.7650015,0,0)" y="-203.24594" x="510.32791" height="3.794178" width="3.6360872"/>
      </g>
    </pattern>
  </defs>
  <sodipodi:namedview id="base" pagecolor="#ffffff" bordercolor="#666666" borderopacity="1.0" inkscape:pageopacity="0.0" inkscape:pageshadow="2" inkscape:zoom="0.95269309" inkscape:cx="291.66707" inkscape:cy="282.23245" inkscape:current-layer="layer2" inkscape:document-units="px" inkscape:window-width="1280" inkscape:window-height="744" inkscape:window-x="1456" inkscape:window-y="176" showgrid="false" showborder="false" inkscape:showpageshadow="false"/>
  <metadata id="metadata2241">
    <rdf:RDF>
      <cc:Work rdf:about="">
        <dc:format>image/svg+xml</dc:format>
        <dc:type rdf:resource="http://purl.org/dc/dcmitype/StillImage"/>
        <dc:title>Avus</dc:title>
        <dc:date>6-28-2008</dc:date>
        <dc:creator>
          <cc:Agent>
            <dc:title>Unknown</dc:title>
          </cc:Agent>
        </dc:creator>
        <dc:publisher>
          <cc:Agent>
            <dc:title>Unknown</dc:title>
          </cc:Agent>
        </dc:publisher>
        <dc:subject>
          <rdf:Bag>
            <rdf:li>Racing</rdf:li>
            <rdf:li>AVUS</rdf:li>
            <rdf:li>Autobahn</rdf:li>
          </rdf:Bag>
        </dc:subject>
        <dc:description>Modified by Will Pittenger to make the image better suited for overlaying in Google Earth by eliminating the background and adding borders to select objects.</dc:description>
        <cc:license rdf:resource="http://creativecommons.org/licenses/publicdomain/"/>
      </cc:Work>
      <cc:License rdf:about="http://creativecommons.org/licenses/publicdomain/">
        <cc:permits rdf:resource="http://creativecommons.org/ns#Reproduction"/>
        <cc:permits rdf:resource="http://creativecommons.org/ns#Distribution"/>
        <cc:permits rdf:resource="http://creativecommons.org/ns#DerivativeWorks"/>
      </cc:License>
    </rdf:RDF>
  </metadata>
  <g inkscape:groupmode="layer" id="layer2" inkscape:label="SVG" style="display:inline" transform="translate(-59.954527,-23.84693)">
    <path style="opacity:1;fill:#000000;fill-rule:evenodd;stroke:#000000;stroke-width:1.46513534px;stroke-linecap:butt;stroke-linejoin:miter;stroke-opacity:1" d="M 523.53125,25.65625 C 520.95654,25.6805 518.13995,25.990102 515.03125,26.65625 L 482.21875,35.8125 L 452.78125,67.59375 L 88,465.53125 L 78.1875,476.34375 C 78.187503,476.34373 80.22213,478.70572 56.875,483.78125 C 56.875002,483.78124 42.66268,486.1776 45.03125,507.15625 C 45.031249,507.15626 50.44076,521.34162 66.34375,517.28125 C 66.34375,517.28124 75.50313,518.30718 91.40625,498.34375 L 230.8125,346.40625 L 361.75,203.625 L 446.6875,110.90625 C 446.6875,110.90625 456.50212,97.37821 470.375,93.65625 L 536.34375,73.6875 C 536.34374,73.687501 549.53125,69.293076 549.53125,52.375 C 549.53124,52.375001 548.42009,25.421835 523.53125,25.65625 z M 525.9375,35.40625 C 535.83553,35.417182 536.00002,42.562501 536,42.5625 C 545.47412,61.849256 531.59374,64.562496 531.59375,64.5625 L 485.9375,78.4375 C 449.0558,86.89642 449.71876,93.000002 449.71875,93 L 355.3125,195.5 L 146.53125,423.21875 L 72.78125,502.75 C 59.24671,513.91595 55.531249,503.75001 55.53125,503.75 C 50.45584,494.27579 67.718754,491.24999 67.71875,491.25 C 81.92994,487.86614 86.65625,482.09376 86.65625,482.09375 L 368.1875,175.53125 L 487.28125,46.28125 L 509.28125,39.53125 C 516.70411,36.485988 522.06436,35.401972 525.9375,35.40625 z" transform="translate(60.079527,23.97193)" id="path2343"/>
    <path sodipodi:type="arc" style="opacity:1;fill:#ffffff;fill-opacity:1;stroke:#000000;stroke-width:1;stroke-linecap:square;stroke-linejoin:bevel;stroke-miterlimit:4;stroke-dasharray:none;stroke-dashoffset:0;stroke-opacity:1;display:inline" id="path4248" sodipodi:cx="105.7745" sodipodi:cy="577.21741" sodipodi:rx="5.1050668" sodipodi:ry="5.0739384" d="M 110.8757,577.41486 A 5.1050668,5.0739384 0 1 1 110.87576,577.41326" sodipodi:start="0.038924886" sodipodi:end="6.3217938" sodipodi:open="true" transform="matrix(0.8299833,0,0,0.8594297,22.570374,32.329669)"/>
    <path sodipodi:type="arc" style="opacity:1;fill:#ffffff;fill-opacity:1;stroke:#000000;stroke-width:1;stroke-linecap:square;stroke-linejoin:bevel;stroke-miterlimit:4;stroke-dasharray:none;stroke-dashoffset:0;stroke-opacity:1;display:inline" id="path2449" sodipodi:cx="105.7745" sodipodi:cy="577.21741" sodipodi:rx="5.1050668" sodipodi:ry="5.0739384" d="M 110.8757,577.41486 A 5.1050668,5.0739384 0 1 1 110.87576,577.41326" sodipodi:start="0.038924886" sodipodi:end="6.3217938" sodipodi:open="true" transform="matrix(0.8299833,0,0,0.8594297,431.82151,-379.79745)"/>
    <path sodipodi:type="arc" style="opacity:1;fill:#ffffff;fill-opacity:1;stroke:#000000;stroke-width:1;stroke-linecap:square;stroke-linejoin:bevel;stroke-miterlimit:4;stroke-dasharray:none;stroke-dashoffset:0;stroke-opacity:1;display:inline" id="path2451" sodipodi:cx="105.7745" sodipodi:cy="577.21741" sodipodi:rx="5.1050668" sodipodi:ry="5.0739384" d="M 110.8757,577.41486 A 5.1050668,5.0739384 0 1 1 110.87576,577.41326" sodipodi:start="0.038924886" sodipodi:end="6.3217938" sodipodi:open="true" transform="matrix(0.8299833,0,0,0.8594297,515.05896,-425.47639)"/>
    <path sodipodi:type="arc" style="opacity:1;fill:#ffffff;fill-opacity:1;stroke:#000000;stroke-width:1;stroke-linecap:square;stroke-linejoin:bevel;stroke-miterlimit:4;stroke-dasharray:none;stroke-dashoffset:0;stroke-opacity:1;display:inline" id="path2453" sodipodi:cx="105.7745" sodipodi:cy="577.21741" sodipodi:rx="5.1050668" sodipodi:ry="5.0739384" d="M 110.8757,577.41486 A 5.1050668,5.0739384 0 1 1 110.87576,577.41326" sodipodi:start="0.038924886" sodipodi:end="6.3217938" sodipodi:open="true" transform="matrix(0.8299833,0,0,0.8594297,460.24389,-431.56696)"/>
    <path style="fill:#ff0000;fill-rule:evenodd;stroke:#ffffff;stroke-width:0.9965983px;stroke-linecap:butt;stroke-linejoin:miter;stroke-opacity:0;display:inline" d="M 524.54419,44.11488 L 514.1824,34.191716 L 501.60576,59.510585 L 524.54419,44.11488 z" id="path2302"/>
    <path style="fill:#ff0000;fill-rule:evenodd;stroke:#ffffff;stroke-width:0.9965983px;stroke-linecap:butt;stroke-linejoin:miter;stroke-opacity:0;display:inline" d="M 254.25039,416.63039 L 263.70271,427.42336 L 278.44923,403.30385 L 254.25039,416.63039 z" id="path2484"/>
    <path sodipodi:type="arc" style="opacity:1;fill:#ffffff;fill-opacity:1;stroke:#000000;stroke-width:1;stroke-linecap:square;stroke-linejoin:bevel;stroke-miterlimit:4;stroke-dasharray:none;stroke-dashoffset:0;stroke-opacity:1;display:inline" id="path3167" sodipodi:cx="84.012054" sodipodi:cy="594.70117" sodipodi:rx="15.754308" sodipodi:ry="15.950828" d="M 99.754429,595.3219 A 15.754308,15.950828 0 1 1 99.754622,595.31686" sodipodi:start="0.038924886" sodipodi:end="6.3217938" sodipodi:open="true" transform="matrix(0.9040529,0,0,0.9040529,551.43675,-477.10641)"/>
    <path sodipodi:type="arc" style="opacity:1;fill:#ffffff;fill-opacity:1;stroke:#000000;stroke-width:1;stroke-linecap:square;stroke-linejoin:bevel;stroke-miterlimit:4;stroke-dasharray:none;stroke-dashoffset:0;stroke-opacity:1;display:inline" id="path2487" sodipodi:cx="84.012054" sodipodi:cy="594.70117" sodipodi:rx="15.754308" sodipodi:ry="15.950828" d="M 99.754429,595.3219 A 15.754308,15.950828 0 1 1 99.754622,595.31686" sodipodi:start="0.038924886" sodipodi:end="6.3217938" sodipodi:open="true" transform="matrix(0.9040529,0,0,0.9040529,468.87699,-497.46)"/>
    <path sodipodi:type="arc" style="opacity:1;fill:#ffffff;fill-opacity:1;stroke:#000000;stroke-width:1;stroke-linecap:square;stroke-linejoin:bevel;stroke-miterlimit:4;stroke-dasharray:none;stroke-dashoffset:0;stroke-opacity:1;display:inline" id="path2489" sodipodi:cx="84.012054" sodipodi:cy="594.70117" sodipodi:rx="15.754308" sodipodi:ry="15.950828" d="M 99.754429,595.3219 A 15.754308,15.950828 0 1 1 99.754622,595.31686" sodipodi:start="0.038924886" sodipodi:end="6.3217938" sodipodi:open="true" transform="matrix(0.9040529,0,0,0.9040529,451.34995,-397.35346)"/>
    <path sodipodi:type="arc" style="opacity:1;fill:#ffffff;fill-opacity:1;stroke:#000000;stroke-width:1;stroke-linecap:square;stroke-linejoin:bevel;stroke-miterlimit:4;stroke-dasharray:none;stroke-dashoffset:0;stroke-opacity:1;display:inline" id="path2491" sodipodi:cx="84.012054" sodipodi:cy="594.70117" sodipodi:rx="15.754308" sodipodi:ry="15.950828" d="M 99.754429,595.3219 A 15.754308,15.950828 0 1 1 99.754622,595.31686" sodipodi:start="0.038924886" sodipodi:end="6.3217938" sodipodi:open="true" transform="matrix(0.9040529,0,0,0.9040529,20.251683,17.228867)"/>
    <text xml:space="preserve" style="font-size:25.37868881px;font-style:normal;font-weight:normal;fill:#000000;fill-opacity:1;stroke:none;stroke-width:1px;stroke-linecap:butt;stroke-linejoin:miter;stroke-opacity:1;display:inline;font-family:Bitstream Vera Sans" x="89.140991" y="563.79834" id="text4146"><tspan sodipodi:role="line" id="tspan4148" x="89.140991" y="563.79834">1</tspan></text>
    <text xml:space="preserve" style="font-size:25.37868881px;font-style:normal;font-weight:normal;fill:#000000;fill-opacity:1;stroke:none;stroke-width:1px;stroke-linecap:butt;stroke-linejoin:miter;stroke-opacity:1;display:inline;font-family:Bitstream Vera Sans" x="520.85498" y="149.4073" id="text2495"><tspan sodipodi:role="line" id="tspan2497" x="520.85498" y="149.4073">2</tspan></text>
    <text xml:space="preserve" style="font-size:25.37868881px;font-style:normal;font-weight:normal;fill:#000000;fill-opacity:1;stroke:none;stroke-width:1px;stroke-linecap:butt;stroke-linejoin:miter;stroke-opacity:1;display:inline;font-family:Bitstream Vera Sans" x="620.96167" y="68.850426" id="text2499"><tspan sodipodi:role="line" id="tspan2501" x="620.96167" y="68.850426">3</tspan></text>
    <text xml:space="preserve" style="font-size:25.37868881px;font-style:normal;font-weight:normal;fill:#000000;fill-opacity:1;stroke:none;stroke-width:1px;stroke-linecap:butt;stroke-linejoin:miter;stroke-opacity:1;display:inline;font-family:Bitstream Vera Sans" x="538.38239" y="48.626915" id="text2503"><tspan sodipodi:role="line" id="tspan2505" x="538.38239" y="48.626915">4</tspan></text>
    <text xml:space="preserve" style="font-size:14.6513586px;font-style:normal;font-weight:normal;fill:#000000;fill-opacity:1;stroke:#ffffff;stroke-width:0.25;stroke-linecap:butt;stroke-linejoin:miter;stroke-miterlimit:4;stroke-dasharray:none;stroke-opacity:1;display:inline;font-family:Bitstream Vera Sans" x="59.42136" y="588.258" id="text2511"><tspan sodipodi:role="line" id="tspan2513" x="59.42136" y="588.258">Südschleife</tspan></text>
    <text xml:space="preserve" style="font-size:14.6513586px;font-style:normal;font-weight:normal;fill:#000000;fill-opacity:1;stroke:#ffffff;stroke-width:0.25;stroke-linecap:butt;stroke-linejoin:miter;stroke-miterlimit:4;stroke-dasharray:none;stroke-opacity:1;display:inline;font-family:Bitstream Vera Sans" x="589.82178" y="34.638519" id="text2515"><tspan sodipodi:role="line" id="tspan2517" x="589.82178" y="34.638519">Nordschleife</tspan></text>
    <rect style="opacity:1;fill:url(#pattern4166);fill-opacity:1;stroke:#000000;stroke-width:0.76401436;stroke-linecap:round;stroke-linejoin:round;stroke-miterlimit:4;stroke-dasharray:none;stroke-dashoffset:0;stroke-opacity:1;display:inline" id="rect3457" width="11.300811" height="45.98362" x="-263.0538" y="434.35028" transform="matrix(-0.6225295,0.7825964,0.7825964,0.6225295,0,0)" ry="0"/>
  </g>
</svg>